REM DIRINDEX 1\2,1\3\7,1\3\8,1\4\9,1\4\10,1\4\11,1\5\12,1\5\13,1\5\14,1\6\15,1\6\16,1\6\17
REM DIRNAME "folder01","folder02","folder03","folder04","folder05","folder06","folder07","folder08","folder09","folder10","folder11","folder12","folder13","folder14","folder15","folder16","folder17"
TITLE ""
FILE "2Q_t_1035-1052.mp3" MP3
  TRACK 01 AUDIO
    TITLE "0:"
    INDEX 01 00:00:00
  TRACK 02 AUDIO
    TITLE "7:cjc174_3857"
    INDEX 01 00:00:10
  TRACK 03 AUDIO
    TITLE "0:"
    INDEX 01 00:01:27
  TRACK 04 AUDIO
    TITLE "8:cjc174_3858"
    INDEX 01 00:02:01
  TRACK 05 AUDIO
    TITLE "0:"
    INDEX 01 00:03:24
  TRACK 06 AUDIO
    TITLE "7:cjc174_3859"
    INDEX 01 00:03:69
  TRACK 07 AUDIO
    TITLE "0:"
    INDEX 01 00:04:71
  TRACK 08 AUDIO
    TITLE "8:cjc174_3860"
    INDEX 01 00:05:43
  TRACK 09 AUDIO
    TITLE "0:"
    INDEX 01 00:08:73
  TRACK 10 AUDIO
    TITLE "7:cjc174_3861"
    INDEX 01 00:09:43
  TRACK 11 AUDIO
    TITLE "0:"
    INDEX 01 00:10:69
  TRACK 12 AUDIO
    TITLE "8:cjc174_3862"
    INDEX 01 00:11:41
  TRACK 13 AUDIO
    TITLE "0:"
    INDEX 01 00:13:64
  TRACK 14 AUDIO
    TITLE "7:cjc174_3863"
    INDEX 01 00:14:32
  TRACK 15 AUDIO
    TITLE "0:"
    INDEX 01 00:15:73
  TRACK 16 AUDIO
    TITLE "8:cjc174_3864"
    INDEX 01 00:16:45
  TRACK 17 AUDIO
    TITLE "0:"
    INDEX 01 00:19:10
  TRACK 18 AUDIO
    TITLE "7:cjc174_3865"
    INDEX 01 00:19:55
  TRACK 19 AUDIO
    TITLE "0:"
    INDEX 01 00:20:72
  TRACK 20 AUDIO
    TITLE "8:cjc174_3866"
    INDEX 01 00:21:46
  TRACK 21 AUDIO
    TITLE "0:"
    INDEX 01 00:24:03
  TRACK 22 AUDIO
    TITLE "7:cjc174_3867"
    INDEX 01 00:24:48
  TRACK 23 AUDIO
    TITLE "0:"
    INDEX 01 00:26:06
  TRACK 24 AUDIO
    TITLE "8:cjc174_3868"
    INDEX 01 00:26:59
  TRACK 25 AUDIO
    TITLE "0:"
    INDEX 01 00:28:07
  TRACK 26 AUDIO
    TITLE "7:cjc174_3869"
    INDEX 01 00:28:52
  TRACK 27 AUDIO
    TITLE "0:"
    INDEX 01 00:30:25
  TRACK 28 AUDIO
    TITLE "8:cjc174_3870"
    INDEX 01 00:30:70
  TRACK 29 AUDIO
    TITLE "0:"
    INDEX 01 00:31:66
  TRACK 30 AUDIO
    TITLE "7:cjc174_3871"
    INDEX 01 00:32:34
  TRACK 31 AUDIO
    TITLE "0:"
    INDEX 01 00:33:47
  TRACK 32 AUDIO
    TITLE "8:cjc174_3872"
    INDEX 01 00:34:17
  TRACK 33 AUDIO
    TITLE "0:"
    INDEX 01 00:36:37
  TRACK 34 AUDIO
    TITLE "7:cjc174_3873"
    INDEX 01 00:37:06
  TRACK 35 AUDIO
    TITLE "0:"
    INDEX 01 00:38:36
  TRACK 36 AUDIO
    TITLE "8:cjc174_3874"
    INDEX 01 00:39:10
  TRACK 37 AUDIO
    TITLE "0:"
    INDEX 01 00:40:12
  TRACK 38 AUDIO
    TITLE "7:cjc174_3875"
    INDEX 01 00:40:55
  TRACK 39 AUDIO
    TITLE "0:"
    INDEX 01 00:42:22
  TRACK 40 AUDIO
    TITLE "8:cjc174_3876"
    INDEX 01 00:42:67
  TRACK 41 AUDIO
    TITLE "0:"
    INDEX 01 00:44:08
  TRACK 42 AUDIO
    TITLE "7:cjc174_3877"
    INDEX 01 00:44:53
  TRACK 43 AUDIO
    TITLE "0:"
    INDEX 01 00:46:06
  TRACK 44 AUDIO
    TITLE "8:cjc174_3878"
    INDEX 01 00:46:54
  TRACK 45 AUDIO
    TITLE "0:"
    INDEX 01 00:48:74
  TRACK 46 AUDIO
    TITLE "7:cjc174_3879"
    INDEX 01 00:49:42
  TRACK 47 AUDIO
    TITLE "0:"
    INDEX 01 00:50:61
  TRACK 48 AUDIO
    TITLE "8:cjc174_3880"
    INDEX 01 00:51:39
  TRACK 49 AUDIO
    TITLE "0:"
    INDEX 01 00:54:75
  TRACK 50 AUDIO
    TITLE "7:cjc174_3881"
    INDEX 01 00:55:47
  TRACK 51 AUDIO
    TITLE "0:"
    INDEX 01 00:56:64
  TRACK 52 AUDIO
    TITLE "8:cjc174_3882"
    INDEX 01 00:57:47
  TRACK 53 AUDIO
    TITLE "0:"
    INDEX 01 00:59:01
  TRACK 54 AUDIO
    TITLE "7:cjc174_3883"
    INDEX 01 00:59:46
  TRACK 55 AUDIO
    TITLE "0:"
    INDEX 01 01:00:71
  TRACK 56 AUDIO
    TITLE "8:cjc174_3884"
    INDEX 01 01:01:43
  TRACK 57 AUDIO
    TITLE "0:"
    INDEX 01 01:04:04
  TRACK 58 AUDIO
    TITLE "7:cjc174_3885"
    INDEX 01 01:04:48
  TRACK 59 AUDIO
    TITLE "0:"
    INDEX 01 01:05:67
  TRACK 60 AUDIO
    TITLE "8:cjc174_3886"
    INDEX 01 01:06:39
  TRACK 61 AUDIO
    TITLE "0:"
    INDEX 01 01:09:10
  TRACK 62 AUDIO
    TITLE "7:cjc174_3887"
    INDEX 01 01:09:55
  TRACK 63 AUDIO
    TITLE "0:"
    INDEX 01 01:10:58
  TRACK 64 AUDIO
    TITLE "8:cjc174_3888"
    INDEX 01 01:11:28
  TRACK 65 AUDIO
    TITLE "0:"
    INDEX 01 01:12:22
  TRACK 66 AUDIO
    TITLE "7:cjc174_3889"
    INDEX 01 01:12:67
  TRACK 67 AUDIO
    TITLE "0:"
    INDEX 01 01:14:05
  TRACK 68 AUDIO
    TITLE "8:cjc174_3890"
    INDEX 01 01:14:60
  TRACK 69 AUDIO
    TITLE "0:"
    INDEX 01 01:16:02
  TRACK 70 AUDIO
    TITLE "7:cjc174_3891"
    INDEX 01 01:16:45
  TRACK 71 AUDIO
    TITLE "0:"
    INDEX 01 01:18:03
  TRACK 72 AUDIO
    TITLE "8:cjc174_3892"
    INDEX 01 01:18:54
  TRACK 73 AUDIO
    TITLE "0:"
    INDEX 01 01:19:73
